# xmcd CD database file
#
# Track frame offsets:
#	150
#	27381
#	41411
#	58891
#	87889
#	112175
#	135654
#	160368
#	182321
#	217244
#	239885
#
# Disc length: 3378 seconds
#
# Revision: 0
# Processed by: cddbd v1.5.2PL0 Copyright (c) Steve Scherf et al.
# Submitted via: CDex 1.51
#
DISCID=a30d300b
DTITLE=Limbo - Kalimbo
DYEAR=2007
DGENRE=Jazz
TTITLE0=Tanec Na Plazi - Dance On The Beach
TTITLE1=Saman - The Medicine Man
TTITLE2=Joe Cestoval - Joe Traveller
TTITLE3=Muz S Diavou - A Man With Diava
TTITLE4=Tango Pro Gila - Tango For Gila
TTITLE5=Kalimbo
TTITLE6=Navrat - Comeback
TTITLE7=Pan Tau - Mr. Tau
TTITLE8=Dumka
TTITLE9=Psychoventilace - Psychoventil
TTITLE10=Prsi - It's Raining
EXTD=YEAR: 2007
EXTT0=
EXTT1=
EXTT2=
EXTT3=
EXTT4=
EXTT5=
EXTT6=
EXTT7=
EXTT8=
EXTT9=
EXTT10=
PLAYORDER=
